<svg xmlns="http://www.w3.org/2000/svg" viewBox="40 80 355 290" fill="none">
  <g transform="matrix(1,0,0,1,-6913,0)">
    <g transform="matrix(0.771207,0,0,0.347495,4842.309258,-2.779956)">
      <!-- Monogram (oval + L stylise) -->
      <g transform="matrix(1.015236,0,0,2.25315,105.43617,170.248486)">
        <g transform="matrix(1.855072,0,0,1.932744,598.346353,-1649.277073)">
          <path d="M1153.157,919.872C1154.087,900.59 1170.474,885.231 1190.5,885.231C1210.526,885.231 1226.913,900.59 1227.843,919.872C1227.871,920.445 1227.885,921.021 1227.885,921.601L1227.885,946.601C1227.885,947.107 1227.874,947.611 1227.853,948.112C1227.036,967.495 1210.602,982.97 1190.5,982.97C1170.398,982.97 1153.964,967.495 1153.147,948.112C1153.126,947.611 1153.115,947.107 1153.115,946.601L1153.115,921.601C1153.115,921.021 1153.129,920.445 1153.157,919.872ZM1158.92,920.128C1158.896,920.616 1158.885,921.107 1158.885,921.601L1158.885,946.601C1158.885,947.032 1158.894,947.461 1158.912,947.888C1159.603,964.298 1173.482,977.432 1190.5,977.432C1207.518,977.432 1221.397,964.298 1222.088,947.888C1222.106,947.461 1222.115,947.032 1222.115,946.601L1222.115,921.601C1222.115,921.107 1222.104,920.616 1222.08,920.128C1221.292,903.804 1207.454,890.769 1190.5,890.769C1173.546,890.769 1159.708,903.804 1158.92,920.128Z" fill="#B0987C"/>
        </g>
        <g transform="matrix(1,0,0,1,-87,-975)">
          <path d="M2867.71,1154.96C2853.009,1162.26 2849.294,1167.66 2849.294,1167.66L2839.989,1159.314C2839.989,1159.314 2844.735,1151.287 2867.71,1141.114L2867.71,1090.095L2879.537,1090.095L2879.537,1136.333C2880.458,1135.991 2881.399,1135.649 2882.361,1135.305C2883.735,1134.815 2885.186,1134.333 2886.71,1133.823L2886.71,1092.567C2886.71,1087.491 2888.498,1076.126 2897.775,1070.213C2903.377,1066.642 2910.711,1064.331 2921.621,1067.222C2935.839,1070.989 2941.052,1082.032 2940.936,1093.872C2940.831,1104.642 2935.919,1115.958 2930.169,1121.781C2918.344,1133.754 2907.617,1139.307 2898.537,1142.848L2898.537,1153.366L2917.802,1153.366L2917.802,1164.498L2886.71,1164.498L2886.71,1147.026C2886.661,1147.043 2886.612,1147.061 2886.563,1147.078C2884.065,1147.969 2881.726,1148.853 2879.537,1149.723L2879.537,1176.366L2917.802,1176.366L2917.802,1187.498L2867.71,1187.498L2867.71,1154.96ZM2898.537,1129.286C2905.371,1126.119 2913.04,1121.335 2921.275,1112.997C2925.223,1109 2928.365,1101.144 2928.437,1093.75C2928.499,1087.426 2926.013,1081.317 2918.419,1079.305C2912.412,1077.713 2908.159,1078.075 2905.22,1080.254C2902.222,1082.477 2900.344,1085.539 2899.417,1089.491C2898.807,1092.092 2898.806,1095.487 2898.537,1098.133L2898.537,1129.286Z" fill="#B0987C"/>
        </g>
      </g>
      <!-- LYVIES text -->
      <g transform="matrix(1.077582,0,0,2.391516,2338.716482,-2736.056244)">
        <text x="396px" y="1562px" style="font-family:'Jost', sans-serif;font-size:120.331px;fill:#B0987C;letter-spacing:0.05em;">L<tspan x="443px 516px 596px 625px 695px" y="1562px 1562px 1562px 1562px 1562px">YVIES</tspan></text>
      </g>
    </g>
  </g>
</svg>
